<svg width="46" height="44" viewBox="0 0 46 44" fill="none" xmlns="http://www.w3.org/2000/svg">
<g filter="url(#filter0_d_17_45)">
<path d="M18.2746 6.20399C20.5246 1.93213 26.6419 1.93211 28.8919 6.20398L41.467 30.0789C43.5714 34.0744 40.6742 38.875 36.1583 38.875H11.0082C6.49234 38.875 3.59508 34.0744 5.69954 30.0789L18.2746 6.20399Z" fill="#608100"/>
<path d="M18.717 6.43652C20.7797 2.52117 26.3869 2.52117 28.4495 6.43652L41.0247 30.3115C42.9537 33.9741 40.2979 38.3749 36.1584 38.375H11.0081C6.8686 38.3749 4.21277 33.974 6.14185 30.3115L18.717 6.43652Z" stroke="url(#paint0_linear_17_45)"/>
</g>
<defs>
<filter id="filter0_d_17_45" x="0" y="0" width="45.1665" height="43.875" filterUnits="userSpaceOnUse" color-interpolation-filters="sRGB">
<feFlood flood-opacity="0" result="BackgroundImageFix"/>
<feColorMatrix in="SourceAlpha" type="matrix" values="0 0 0 0 0 0 0 0 0 0 0 0 0 0 0 0 0 0 127 0" result="hardAlpha"/>
<feOffset dx="-1" dy="1"/>
<feGaussianBlur stdDeviation="2"/>
<feComposite in2="hardAlpha" operator="out"/>
<feColorMatrix type="matrix" values="0 0 0 0 0 0 0 0 0 0 0 0 0 0 0 0 0 0 0.1 0"/>
<feBlend mode="normal" in2="BackgroundImageFix" result="effect1_dropShadow_17_45"/>
<feBlend mode="normal" in="SourceGraphic" in2="effect1_dropShadow_17_45" result="shape"/>
</filter>
<linearGradient id="paint0_linear_17_45" x1="44.0718" y1="43.0634" x2="7.39984" y2="2.31415" gradientUnits="userSpaceOnUse">
<stop offset="5.1e-07" stop-color="#91E629"/>
<stop offset="1" stop-color="#D0FF78"/>
</linearGradient>
</defs>
</svg>
